<svg xmlns="http://www.w3.org/2000/svg" viewBox="0 0 980.26 250"><defs><style>.a{fill:#00003e;}.b{fill:#fff;}</style></defs><path class="a" d="M367.53,171.17c0,2.29-.71,3-3,3H353.22c-2.29,0-3-.72-3-3V77c0-2.29.72-3,3-3h14.31ZM374.83,74H417.5c2.43,0,3.14.72,3.14,3V85.7c0,2.3-.71,3.15-3.14,3.15H374.83Zm0,42.38h41.38c2.43,0,3,.72,3,3v8.73c0,2.29-.71,3-3,3H374.83Z"/><path class="a" d="M464.45,175.61a38.06,38.06,0,0,1,0-75.73v14.89c-10.3,1.86-18,11.16-18,23,0,12.31,8.16,21.48,18,23.19ZM471.61,161c10.31-1.71,18.18-11.16,18.18-23.19s-8-21.47-18.18-23V99.88a38,38,0,0,1,0,75.73Z"/><path class="a" d="M540.9,171.17c-.14,2.29-.72,3-3,3H527.59c-2.29,0-3-.72-3-3V104.31c0-2.28.72-3,3-3h5.15c4.44,0,5,.86,8.16,4.44Zm7.16-66.28c3.86-2.72,9-5.16,18.75-5.16,2.87,0,3.15.86,2.87,2.87l-1.58,10.45c-.43,2.29-1.14,2.86-3.44,2.86-7,0-12.16,1.86-16.6,5.59Z"/><path class="a" d="M600,171.17c0,2.29-.57,3-3,3H586.72c-2.15,0-3-.72-3-3V104.31c0-2.28.86-3,3-3H592c2.72,0,4.44.43,5.44,1.72l2.58,4Zm7.16-68a20.2,20.2,0,0,1,12-3.44c20.47,0,27.49,14.46,27.49,34.93v36.51c0,2.29-.71,3-3,3H633.38c-2.28,0-3-.72-3-3V136.38c0-14-4.87-22-15-22a12.31,12.31,0,0,0-8.16,2.86Zm40.37,4.29a25.06,25.06,0,0,1,18.18-7.73c15.75,0,27.48,8.45,27.48,32.93v38.51c0,2.29-.71,3-3,3H679.91c-2.29,0-3-.72-3-3V136.38c0-15.17-5.59-22-15-22a12,12,0,0,0-9.59,4.29A24.54,24.54,0,0,0,647.56,107.46Z"/><path class="a" d="M752.92,171.88c-3.43,2.58-7.73,3.87-13,3.87-15.74,0-27.77-8.44-27.77-33.07V104.31c0-2.28.72-3,3-3h10.31c2.29,0,3,.72,3,3v34.94c0,15,5.59,21.9,15.61,21.9a12.54,12.54,0,0,0,8.87-3.3Zm7.16-67.57c0-2.28.72-3,3-3h10.3c2.3,0,3,.72,3,3v66.86c0,2.29-.71,3-3,3h-5.15c-2.72,0-4.44-.43-5.58-1.72l-2.58-4Z"/><path class="a" d="M801.6,71.53c0-2.29.72-3,3-3h10.31c2.44,0,3,.71,3,3v99.64c0,2.29-.72,3-3,3H804.6c-2.28,0-3-.72-3-3Z"/><path class="a" d="M880.05,171.88c-5.58,2.87-9.73,3.87-16.61,3.87-12.88,0-25.05-7.87-25.05-23.91,0-15.6,12.31-23.05,27.77-23.05,4.44,0,8,.58,13.89,1.72v11.31a35.16,35.16,0,0,0-10-1.43c-10.88,0-15.46,4.87-15.46,11.45,0,5.59,4.15,11.46,14,11.46,4.3,0,7.73-1.44,11.45-3.73Zm7.16-39.36c0-13.46-3.44-18.76-16.61-18.76a115.13,115.13,0,0,0-21,2.15c-2.29.29-2.87-.57-3.44-2.86l-1.71-6.88c-.58-2.28-.29-3.14,1.86-3.72a143.58,143.58,0,0,1,25.05-2.72c27.34,0,32.21,12,32.21,34.65v36.79c0,2.29-.58,3-3,3h-8.73c-2,0-3.15-1-4.58-3Z"/><path class="a" d="M944.76,175.47c-7.45-1.15-15.32-2.87-24.34-8.88-2-1.43-1.71-2.29-.72-4.3l3.16-5.43c1-2,1.72-3,4-1.29a41.59,41.59,0,0,0,17.9,7.15ZM951.92,163c8.73-.72,12.88-4.58,12.88-9.74,0-4.72-6.3-7-17.18-8.44-14.89-2-27.92-6.59-27.92-21.91,0-13.45,10.6-22.75,28.35-23.19v12.75c-9.3.57-12.88,4.15-12.88,9.59s6.16,7,17.18,8.59c14.89,1.86,27.91,6.58,27.91,21.76,0,13.45-11,22.62-28.34,23.33Zm3.29-62.84a59,59,0,0,1,21,7.58c2.28,1.43,1.71,2.43.85,4.44l-3.15,5.3c-1,2-1.86,2.86-4,1.43-5.29-3.29-9.16-5.16-14.74-6Z"/><path class="a" d="M164.44,250H0V85.56A85.65,85.65,0,0,1,85.56,0H250V164.44A85.65,85.65,0,0,1,164.44,250Z"/><path class="b" d="M95.84,171.74h0a10.81,10.81,0,0,1-9.18-6.06,10,10,0,0,1,1.95-10.82l27.15-28.48L88.6,97.91a10,10,0,0,1-1.95-10.83,10.83,10.83,0,0,1,9.19-6h58a7.56,7.56,0,0,1,7.57,7.56V99.93a3.78,3.78,0,0,1-3.78,3.78h-3.79a3.79,3.79,0,0,1-3.79-3.78V92.36H99l27.47,28.81a7.54,7.54,0,0,1,0,10.43L99,160.4h51.09v-7.56a3.79,3.79,0,0,1,3.79-3.78h3.79a3.78,3.78,0,0,1,3.78,3.78v11.34a7.57,7.57,0,0,1-7.57,7.56Z"/></svg>